<svg fill="none" height="741" viewBox="0 0 1800 741" width="1800" xmlns="http://www.w3.org/2000/svg" xmlns:xlink="http://www.w3.org/1999/xlink"><mask id="a" height="741" maskUnits="userSpaceOnUse" width="1800" x="0" y="0"><path d="m1800 0h-1800v740.957h1800z" fill="#fff"/></mask><g mask="url(#a)"><path d="m0 736.508h114.761c20.522-14.445 39.523-30.939 56.707-49.229-11.05-11.728-21.387-24.109-30.955-37.074-39.676 39.064-87.7295 68.578-140.513 86.303z" fill="#8dc63f"/><path d="m342.935 8.74658h-114.761c-20.522 14.44472-39.522 30.93912-56.707 49.22882 11.048 11.7297 21.385 24.1099 30.955 37.0742 39.674-39.0608 87.736-68.5746 140.513-86.30302z" fill="#2b398b"/><path d="m202.438 650.187c-11.009-10.781-21.346-22.227-30.956-34.272-54.759-69.271-84.548-154.991-84.548-243.292 0-88.302 29.789-174.021 84.548-243.293-9.617-12.038-19.954-23.483-30.955-34.2712-58.1396 80.7892-88.9771 178.0272-88.0233 277.5572-.9567 99.535 29.8808 196.777 88.0233 277.571 9.556 12.975 19.894 25.356 30.955 37.074 17.183 18.292 36.183 34.787 56.708 49.229h114.802c-52.781-17.721-100.83-47.235-140.499-86.303" fill="#2b398b"/><path d="m202.437 95.0627c-9.567-12.9659-19.904-25.3463-30.955-37.0742-17.184-18.2904-36.184-34.785-56.707-49.22873h-114.775c52.7833 17.72483 100.836 47.23893 140.513 86.30293 11.004 10.7853 21.342 22.2303 30.955 34.2713 55.021 69.131 84.844 154.946 84.555 243.3.291 88.353-29.532 174.169-84.555 243.299 9.613 12.042 19.951 23.487 30.955 34.272 58.143-80.794 88.981-178.036 88.024-277.571.961-99.534-29.872-196.776-88.01-277.5713z" fill="#8dc63f"/><g fill="#2b398b"><path d="m795.695 420.11h1.388v-407.1498h71.22v509.2988h-89.91l-269.052-415.781h-1.387v415.781h-71.221v-509.2988h92.796z"/><path d="m1249.39 458.961h-239.84v-169.776h188.27c-.39-7.423-.61-14.915-.61-22.519 0-13.163.56-26.039 1.69-38.628h-189.35v-152.4873h238.65c13.56-22.2768 29.88-42.752 48.56-60.9393.59-.5689 1.2-1.0823 1.79-1.6373h-360.221v509.2849h362.141c-1.24-1.166-2.53-2.317-3.75-3.511-18.1-17.97-34-38.042-47.33-59.787z"/><path d="m1800 266.89c.43 37.078-6.54 73.87-20.49 108.226-12.96 31.788-32.16 60.654-56.48 84.887-24.48 24.079-53.61 42.928-85.61 55.404-34.37 13.418-71 20.13-107.9 19.771-36.79.385-73.3-6.328-107.55-19.771-31.93-12.433-60.95-31.304-85.27-55.44-24.32-24.135-43.41-53.019-56.09-84.851-13.72-34.413-20.56-71.182-20.13-108.226-.47-37.291 6.37-74.314 20.13-108.975 12.63-31.665 31.75-60.3357 56.13-84.1661 24.51-23.6104 53.49-42.0797 85.25-54.3209 34.29-13.22017 70.79-19.811813 107.54-19.42510388 36.87-.36075512 73.48 6.22925388 107.91 19.42510388 31.89 12.1771 61 30.6459 85.61 54.3071 24.4 23.8814 43.62 52.5319 56.47 84.1659 14 34.604 20.97 71.65 20.49 108.975m-76.96 0c.16-26.86-4.47-53.533-13.67-78.769-8.69-23.976-21.87-46.072-38.85-65.102-16.96-18.821-37.67-33.8875-60.8-44.2333-25.27-10.6859-52.42-16.1919-79.85-16.1919s-54.59 5.506-79.85 16.1919c-23.06 10.2964-43.66 25.3793-60.44 44.2473-16.78 19.105-29.83 41.187-38.48 65.102-9.2 25.235-13.83 51.909-13.66 78.769-.19 27.219 4.43 54.257 13.66 79.865 8.56 24.034 21.76 46.15 38.85 65.088 16.89 18.56 37.47 33.386 60.43 43.526 24.93 10.86 51.9 16.263 79.09 15.845 27.43.37 54.63-5.029 79.85-15.845 23.23-10.017 44.07-24.853 61.14-43.526 17.09-18.947 30.28-41.061 38.86-65.088 9.22-25.609 13.85-52.646 13.66-79.865"/></g><g fill="#8dc63f"><path d="m567.977 599.167c-5.568-5.955-12.367-10.624-19.925-13.681-8.561-3.517-17.746-5.263-27.001-5.133-9.42-.12-18.758 1.772-27.389 5.55-7.922 3.493-15.015 8.624-20.813 15.054-5.781 6.457-10.265 13.965-13.209 22.117-3.131 8.583-4.705 17.656-4.648 26.793-.062 9.245 1.512 18.428 4.648 27.126 2.913 8.165 7.401 15.68 13.209 22.116 5.855 6.387 13.021 11.432 21.007 14.791 8.823 3.69 18.312 5.523 27.875 5.384 7.554.063 15.094-.677 22.492-2.206 6.228-1.228 12.241-3.37 17.843-6.355v-48.23h-38.337v-20.563h62.341v83.833c-9.421 5.002-19.441 8.784-29.818 11.253-11.538 2.688-23.354 3.997-35.201 3.899-12.746.153-25.404-2.126-37.296-6.716-10.91-4.165-20.835-10.552-29.144-18.757-8.31-8.205-14.824-18.048-19.127-28.903-9.181-23.757-9.137-50.09.125-73.816 4.373-10.771 10.946-20.511 19.3-28.596 8.416-8.027 18.344-14.3 29.207-18.454 11.7-4.487 24.141-6.732 36.672-6.619 12.616-.203 25.165 1.87 37.046 6.119 10.017 3.579 19.207 9.149 27.015 16.373z"/><path d="m644.982 715.041h90.452v21.507h-114.65v-173.009h111.001v21.257h-86.803v51.823h81.641v20.813h-81.641z"/><path d="m890.905 701.848h.485v-138.376h24.212v173.091h-30.525l-91.423-141.303h-.472v141.303h-24.253v-173.091h31.524z"/><path d="m1128.51 649.776c.16 12.6-2.2 25.104-6.93 36.783-4.36 10.841-10.9 20.669-19.22 28.873-8.32 8.205-18.24 14.609-29.14 18.815-23.58 8.961-49.62 8.961-73.2 0-10.823-4.273-20.674-10.676-28.973-18.828-8.246-8.229-14.732-18.047-19.065-28.86-9.13-23.763-9.13-50.067 0-73.83 4.301-10.752 10.793-20.491 19.065-28.596 8.335-8.015 18.184-14.288 28.973-18.454 23.61-8.796 49.59-8.796 73.2 0 10.85 4.135 20.76 10.411 29.14 18.454 8.29 8.113 14.82 17.847 19.19 28.596 4.75 11.766 7.11 24.36 6.94 37.047m-26.16 0c.06-9.132-1.52-18.2-4.65-26.779-2.95-8.146-7.43-15.652-13.2-22.117-5.77-6.4-12.81-11.52-20.68-15.027-8.58-3.636-17.8-5.51-27.12-5.51s-18.55 1.874-27.13 5.51c-7.84 3.492-14.836 8.615-20.535 15.027-5.696 6.494-10.129 13.995-13.07 22.117-3.137 8.577-4.711 17.646-4.649 26.779-.07 9.246 1.504 18.43 4.649 27.125 2.906 8.169 7.394 15.685 13.209 22.117 5.732 6.309 12.726 11.348 20.516 14.791 8.48 3.689 17.65 5.525 26.89 5.384 9.33.125 18.57-1.709 27.14-5.384 7.91-3.397 15.01-8.439 20.82-14.791 5.81-6.436 10.29-13.95 13.21-22.117 3.13-8.697 4.71-17.88 4.64-27.125"/><path d="m1247.81 696.463h.49l51.07-132.924h37.63v173.023h-24.18v-144.731h-.5l-57.35 144.731h-15.4l-57.21-144.731h-.49v144.731h-23.47v-173.023h37.65z"/><path d="m1373.22 563.472h24.19v173.078h-24.19z"/><path d="m1589.07 709.672c-7.05 9.466-16.17 17.2-26.65 22.616-12.21 6.077-25.72 9.056-39.35 8.672-12.5.133-24.91-2.147-36.55-6.715-10.8-4.237-20.62-10.646-28.85-18.829-8.18-8.249-14.63-18.058-18.95-28.846-9.17-23.764-9.12-50.099.14-73.829 4.37-10.768 10.95-20.503 19.3-28.583 8.42-8.028 18.34-14.305 29.21-18.468 11.7-4.477 24.14-6.713 36.67-6.59 5.99.009 11.96.581 17.84 1.706 5.95 1.116 11.76 2.836 17.36 5.134 5.37 2.191 10.47 5.023 15.16 8.436 4.48 3.254 8.44 7.164 11.74 11.6l-19.09 14.666c-4.7-6.249-10.86-11.24-17.95-14.528-7.79-3.846-16.38-5.817-25.06-5.758-9.38-.133-18.68 1.761-27.27 5.55-7.86 3.514-14.89 8.643-20.64 15.055-5.78 6.461-10.26 13.968-13.21 22.117-3.13 8.575-4.7 17.638-4.65 26.765-.08 9.323 1.46 18.588 4.54 27.389 2.82 8.149 7.22 15.663 12.94 22.117 5.71 6.345 12.71 11.389 20.54 14.791 8.52 3.684 17.73 5.519 27.01 5.383 9.21.129 18.33-1.881 26.63-5.869 7.97-3.892 14.79-9.787 19.8-17.108z"/><path d="m1706.18 595.491c-3.64-4.918-8.4-8.899-13.88-11.614-6.14-3.074-12.93-4.625-19.8-4.523-4 .015-7.98.546-11.85 1.582-3.91 1.031-7.59 2.771-10.88 5.133-3.24 2.346-5.95 5.348-7.95 8.811-2.11 3.846-3.16 8.185-3.04 12.571-.16 4.132.8 8.231 2.78 11.863 1.9 3.22 4.49 5.977 7.59 8.075 3.48 2.337 7.25 4.203 11.22 5.55 4.33 1.573 8.96 3.164 13.88 4.773 5.87 1.85 11.82 3.89 17.84 6.119 5.87 2.197 11.39 5.245 16.38 9.047 4.93 3.796 9.01 8.584 11.98 14.055 3.33 6.632 4.93 13.996 4.65 21.41.19 8.065-1.52 16.062-5.01 23.337-3.17 6.385-7.73 11.983-13.33 16.387-5.72 4.427-12.23 7.723-19.18 9.712-7.27 2.117-14.8 3.182-22.38 3.164-10.87.012-21.63-2.148-31.66-6.355-9.9-4.014-18.61-10.496-25.29-18.828l18.8-15.901c4.19 6.143 9.82 11.179 16.38 14.68 10.54 5.752 22.91 7.151 34.47 3.899 3.99-1.106 7.76-2.931 11.1-5.384 3.34-2.442 6.14-5.563 8.2-9.157 2.21-4.088 3.3-8.689 3.16-13.334.17-4.588-.97-9.128-3.3-13.085-2.28-3.588-5.32-6.63-8.91-8.907-4.09-2.608-8.48-4.704-13.08-6.244-4.98-1.711-10.23-3.46-15.76-5.245-5.59-1.647-11.06-3.644-16.39-5.98-5.23-2.28-10.09-5.334-14.42-9.061-4.31-3.765-7.8-8.38-10.25-13.556-2.81-6.305-4.15-13.164-3.93-20.063-.2-7.733 1.61-15.386 5.28-22.2 3.38-6.07 8.05-11.33 13.68-15.415 5.74-4.125 12.21-7.146 19.06-8.908 6.98-1.849 14.17-2.782 21.4-2.775 9.7-.069 19.33 1.755 28.34 5.37 8.1 3.109 15.38 8.042 21.27 14.416z"/></g></g></svg>