<svg version="1.1" id="Layer_1" xmlns="http://www.w3.org/2000/svg" xmlns:xlink="http://www.w3.org/1999/xlink" x="0px" y="0px" viewBox="0 0 292.8 76" style="enable-background:new 0 0 292.8 76;" xml:space="preserve">
 <style type="text/css">
  .st0{clip-path:url(#SVGID_2_);fill:url(#SVGID_3_);}
	.st1{fill:#2E783B;}
	.st2{fill:#6CBE45;}
 </style>
 <g>
  <g>
   <defs>
    <path id="SVGID_1_" d="M125.8,41.8l-0.2,0.1C125.7,41.9,125.7,41.8,125.8,41.8 M133.7,0c-16.6,0-18.4,11.2-17.5,18.1
				c0.4-3.8,6.1-12,11.8-14.8c-9.6,8.9-16.7,21.6-9.5,33.5c-1.2-1.2-2.2-2.5-3-3.9c8.4,19.7,37.2,19.5,44.2-0.4
				c1.1-2.8,1.6-5.7,1.6-8.6c0-3.2-0.6-6.2-1.8-9.2c-1.2-2.8-2.8-5.4-5-7.6c-2.2-2.2-4.8-3.9-7.7-5.1C144,0.8,141,0.2,138,0.1
				c12.8,4.1,20.2,17.8,15.2,30.6c-3.6,9.2-14.1,13.8-23.2,9.7c-0.3-0.1-0.6-0.3-0.8-0.4c-1.5-1.3-2.7-3.1-3.3-5.2
				c-1.4-4.9,0.2-10.9,5.5-14.6c-9.4,3.2-10.6,16.3-4.1,21.8c-1.5-1.1-2.9-2.3-4-3.5c-3.8-4.7-5.1-10.5-4.2-15.9
				c15.9-5,7-14,15.3-22.5c-0.2,0-0.3,0-0.5,0H133.7z">
    </path>
   </defs>
   <clipPath id="SVGID_2_">
    <use href="#SVGID_1_" style="overflow:visible;">
    </use>
   </clipPath>
   <linearGradient id="SVGID_3_" gradientUnits="userSpaceOnUse" x1="-428.369" y1="521.0545" x2="-427.369" y2="521.0545" gradientTransform="matrix(45.7911 0 0 -45.7911 19731.0176 23885.9512)">
    <stop offset="0" style="stop-color:#2E793C">
    </stop>
    <stop offset="0.1091" style="stop-color:#2E793C">
    </stop>
    <stop offset="0.3873" style="stop-color:#3F8C3E">
    </stop>
    <stop offset="0.9496" style="stop-color:#6BBD45">
    </stop>
    <stop offset="0.9576" style="stop-color:#6CBE45">
    </stop>
    <stop offset="1" style="stop-color:#6CBE45">
    </stop>
   </linearGradient>
   <rect x="111.3" y="0" class="st0" width="50" height="52.6">
   </rect>
  </g>
  <g>
   <path class="st1" d="M24.5,13.1c-1.4-4.2-3.8-9.1-9.3-9.1c-3.7,0-6.4,2.8-6.4,6.6c0,3.6,2.4,5.8,8.2,8.7c7,3.4,11.7,7.1,11.7,13.6
			c0,7.5-6.4,13.4-16.1,13.4c-2.4,0-4.7-0.3-6.7-0.9c-1.9-0.5-3.1-1.1-4-1.5C1.3,42.3,0.5,36.8,0,32.7L2.3,32
			c1.3,4.2,5.2,11.7,11.6,11.7c4,0,6.6-2.8,6.6-7c0-3.9-2.9-6.4-7.9-9c-6.8-3.4-11.5-7-11.5-13.4c0-7.3,5.8-13,15.2-13
			c4.2,0,8,1.3,9.2,1.8c0.3,2.5,0.7,5.4,1.3,9.5L24.5,13.1z">
   </path>
   <path class="st1" d="M51.1,2.3c5.2,0,9,0.7,11.6,2.6c3.1,2.1,4.9,5.4,4.9,9.7c0,8.9-6.6,12.9-13.5,13.8c-1,0.1-2.1,0.1-2.8,0.1
			l-4.5-1.1v9.1c0,5.6,0.6,6.1,6.3,6.6v2.3H32.5v-2.3c5-0.5,5.6-0.9,5.6-6.6V11.2c0-5.6-0.6-6-5.2-6.6V2.3H51.1z M46.8,24.9
			c0.8,0.3,2.2,0.7,3.6,0.7c2.4,0,7.7-1.7,7.7-10.7c0-7.5-4.2-9.9-8.3-9.9c-1.3,0-2.1,0.3-2.5,0.7C47,6,46.8,6.6,46.8,7.6V24.9z">
   </path>
   <path class="st1" d="M112.7,46c-0.4,0-1.2-0.1-2-0.1c-8.3-0.4-10.9-2.3-13.6-6.4c-1.7-2.7-3.5-6.3-5.4-9.7
			c-1.1-2.1-2.3-2.8-4.4-2.9h-1.3v9.7c0,5.4,0.7,6.1,5.6,6.6v2.3h-20v-2.3c5-0.5,5.7-1.1,5.7-6.6V11.1c0-5.3-0.6-6-5.4-6.4V2.3h18.6
			c5.8,0,9.1,0.7,11.8,2.5c2.6,1.7,4.5,4.7,4.5,8.8c0,5.8-3.8,8.9-8.3,10.8c0.9,1.9,3.4,6.4,5.4,9.4c2.4,3.6,3.8,5.8,5.1,7.2
			c1.5,1.5,2.5,2.3,4,2.8L112.7,46z M87.8,24.3c2.8,0,5-0.5,6.5-1.8c2.3-1.9,3.2-4.5,3.2-7.9c0-7-4.1-9.6-7.8-9.6
			c-1.7,0-2.6,0.3-3,0.7c-0.5,0.4-0.6,1.1-0.6,2.5v16.2H87.8z">
   </path>
   <path class="st1" d="M210.4,4.7c-3.6,0.2-5.3,1.6-5.6,3.9c-0.3,2.1-0.6,4.5-0.6,9.2V25c0,7-1.1,12.6-4.8,16.6
			c-3,3.2-7.5,4.8-12.3,4.8c-4.4,0-8.5-0.9-11.7-3.4c-3.8-2.9-5.5-7.8-5.5-15.6V11.8c0-6.2-0.7-6.7-5.6-7.2V2.3h19.9v2.3
			c-4.8,0.5-5.5,0.9-5.5,7.2v14.4c0,9.9,3.6,15.7,10.7,15.7c7.9,0,11.3-6,11.3-17v-7.1c0-4.7-0.3-7.2-0.7-9.2
			c-0.3-2.3-1.9-3.6-6.4-3.9V2.3h16.6V4.7z">
   </path>
   <path class="st1" d="M250.1,13.7c-0.8-3.4-1.7-5.6-2.9-6.8c-1.1-1.2-2.8-1.6-6.7-1.6h-3v31.3c0,5.6,0.7,6,6.5,6.5v2.3h-21.6v-2.3
			c5.6-0.5,6.2-0.9,6.2-6.5V5.3h-2.3c-5.4,0-6.6,0.7-7.6,1.8c-1.1,1.1-1.9,3.4-2.8,6.7h-2.4c0.3-4.8,0.7-9.7,0.8-13h1.6
			c1.1,1.5,1.9,1.7,3.8,1.7h26.6c1.8,0,2.7-0.4,3.8-1.7h1.6c0.1,2.8,0.4,8.6,0.7,12.8L250.1,13.7z">
   </path>
   <path class="st1" d="M281.8,13.1c-1.4-4.2-3.8-9.1-9.3-9.1c-3.7,0-6.4,2.8-6.4,6.6c0,3.6,2.4,5.8,8.2,8.7
			c7,3.4,11.7,7.1,11.7,13.6c0,7.5-6.4,13.4-16.1,13.4c-2.4,0-4.7-0.3-6.7-0.9c-1.9-0.5-3.1-1.1-4-1.5c-0.6-1.7-1.5-7.2-1.9-11.3
			l2.3-0.7c1.3,4.2,5.2,11.7,11.6,11.7c4,0,6.6-2.8,6.6-7c0-3.9-2.9-6.4-7.9-9c-6.8-3.4-11.5-7-11.5-13.4c0-7.3,5.8-13,15.2-13
			c4.2,0,8,1.3,9.2,1.8c0.3,2.5,0.7,5.4,1.3,9.5L281.8,13.1z">
   </path>
   <path class="st2" d="M25.7,60.8c-0.3-1.2-0.6-1.9-1.1-2.5c-0.6-0.7-1.3-0.9-3.2-0.9h-1.8c-1,0-1.1,0.1-1.1,1v6.8h2.7
			c2.7,0,2.9-0.3,3.3-2.2h1v5.9h-1c-0.3-2-0.6-2.3-3.3-2.3h-2.7v5c0,2.7,0.3,2.9,2.9,3.1v1h-8.9v-1c2.3-0.2,2.5-0.4,2.5-3.1V60.1
			c0-2.7-0.3-2.8-2.5-3v-1h13.8c0,0.7,0.2,2.9,0.3,4.5L25.7,60.8z">
   </path>
   <path class="st2" d="M37.8,75.6v-1c1.8-0.3,2-0.6,1.6-1.9c-0.3-1-0.8-2.4-1.4-3.8h-6c-0.4,1.1-0.8,2.2-1.2,3.4
			c-0.5,1.6-0.4,2,1.8,2.2v1H26v-1c1.9-0.3,2.3-0.5,3.4-3.1L35.5,56l1.3-0.4c1.9,5.2,3.8,10.6,5.8,15.8c1,2.6,1.4,3,3.3,3.2v1H37.8z
			 M35.1,60.6L35.1,60.6c-1,2.3-1.8,4.6-2.6,6.9h5L35.1,60.6z">
   </path>
   <path class="st2" d="M65.8,75.9c-0.2,0-0.6,0-0.9,0c-3.2-0.2-4.4-0.9-5.7-2.8c-0.9-1.3-1.8-3-2.7-4.6c-0.5-0.9-1-1.3-2.2-1.3h-0.7
			v4.5c0,2.5,0.3,2.7,2.6,2.9v1h-8.6v-1c2.3-0.2,2.6-0.5,2.6-2.9V60c0-2.5-0.3-2.7-2.5-2.9v-1h8.1c2.5,0,4,0.3,5.2,1.1
			c1.2,0.8,2,2.1,2,4c0,2.6-1.7,4.1-3.8,4.9c0.5,0.9,1.6,2.9,2.5,4.3c1.1,1.6,1.7,2.5,2.4,3.2c0.7,0.8,1.3,1.1,1.9,1.3L65.8,75.9z
			 M54.6,66.1c1.4,0,2.4-0.2,3.1-0.8c1-0.9,1.5-2.1,1.5-3.6c0-3.2-1.9-4.4-3.8-4.4c-0.8,0-1.2,0.1-1.4,0.3c-0.2,0.2-0.3,0.5-0.3,1.2
			v7.3H54.6z">
   </path>
   <path class="st2" d="M83.1,75.6v-1c2.3-0.2,2.5-0.5,2.5-3.4l-0.1-11.8h-0.1l-6.9,15.9h-0.8l-6.3-15.6h-0.1l-0.4,8.1
			c-0.1,2.5-0.1,3.8,0,4.9c0.1,1.4,0.7,1.6,2.7,1.8v1h-7.1v-1c1.7-0.1,2.3-0.6,2.5-1.7c0.2-1,0.4-2.5,0.6-5.6l0.4-6
			c0.3-3.6,0.1-3.9-2.6-4.1v-1h5.8l6.1,13.8l6.3-13.8h5.7v1c-2.5,0.2-2.6,0.4-2.6,3.1L89,71.3c0.1,2.9,0.2,3.1,2.6,3.4v1H83.1z">
   </path>
   <path class="st2" d="M109.3,70.7c-0.2,1.2-0.8,4-1,4.9h-15v-1c2.6-0.2,2.9-0.4,2.9-2.9V60c0-2.6-0.3-2.8-2.5-2.9v-1h13.8
			c0,0.6,0.2,2.7,0.3,4.4l-1,0.1c-0.3-1.1-0.6-2-1.1-2.6c-0.5-0.6-1.3-0.8-3.1-0.8h-1.7c-1,0-1.1,0.1-1.1,1v6.5h2.3
			c2.6,0,2.9-0.2,3.3-2.2h1v5.9h-1c-0.4-2.2-0.7-2.3-3.3-2.3h-2.3v5.3c0,1.4,0.1,2.1,0.7,2.5c0.5,0.3,1.6,0.3,2.8,0.3
			c1.8,0,2.8-0.2,3.5-1c0.6-0.6,1.1-1.6,1.6-2.9L109.3,70.7z">
   </path>
   <path class="st2" d="M129,75.9c-0.2,0-0.6,0-0.9,0c-3.2-0.2-4.4-0.9-5.7-2.8c-0.9-1.3-1.8-3-2.7-4.6c-0.5-0.9-1-1.3-2.2-1.3h-0.7
			v4.5c0,2.5,0.3,2.7,2.6,2.9v1h-8.6v-1c2.3-0.2,2.6-0.5,2.6-2.9V60c0-2.5-0.3-2.7-2.5-2.9v-1h8.1c2.5,0,4,0.3,5.2,1.1
			c1.2,0.8,2,2.1,2,4c0,2.6-1.7,4.1-3.8,4.9c0.5,0.9,1.6,2.9,2.5,4.3c1.1,1.6,1.7,2.5,2.4,3.2c0.7,0.8,1.3,1.1,1.9,1.3L129,75.9z
			 M117.8,66.1c1.4,0,2.4-0.2,3.1-0.8c1-0.9,1.5-2.1,1.5-3.6c0-3.2-1.9-4.4-3.8-4.4c-0.8,0-1.2,0.1-1.4,0.3
			c-0.2,0.2-0.3,0.5-0.3,1.2v7.3H117.8z">
   </path>
   <path class="st2" d="M141,60.9c-0.6-1.9-1.6-4-4.1-4c-1.9,0-3.1,1.4-3.1,3.1c0,1.9,1.2,2.8,3.8,4.1c2.8,1.4,5.2,3,5.2,6.1
			c0,3.3-2.8,5.9-7.1,5.9c-1.1,0-2.2-0.2-3-0.4c-0.8-0.2-1.3-0.4-1.7-0.6c-0.3-0.7-0.7-3.2-0.9-4.9l1-0.3c0.5,1.9,2.2,5.1,5.1,5.1
			c2,0,3.2-1.3,3.2-3.3c0-1.9-1.4-3-3.7-4.2c-2.7-1.4-5.1-3-5.1-6c0-3.1,2.5-5.7,6.6-5.7c1.7,0,3.3,0.5,4,0.8
			c0.1,1.1,0.3,2.4,0.5,4.3L141,60.9z">
   </path>
   <path class="st2" d="M167.8,75.6v-1c2.3-0.2,2.5-0.5,2.5-3.4l-0.1-11.8H170l-6.9,15.9h-0.8l-6.3-15.6H156l-0.4,8.1
			c-0.1,2.5-0.1,3.8,0,4.9c0.1,1.4,0.7,1.6,2.7,1.8v1h-7.1v-1c1.7-0.1,2.3-0.6,2.5-1.7c0.2-1,0.4-2.5,0.6-5.6l0.4-6
			c0.3-3.6,0.1-3.9-2.6-4.1v-1h5.8l6.1,13.8l6.3-13.8h5.7v1c-2.5,0.2-2.6,0.4-2.6,3.1l0.3,11.1c0.1,2.9,0.2,3.1,2.6,3.4v1H167.8z">
   </path>
   <path class="st2" d="M189.5,75.6v-1c1.8-0.3,2-0.6,1.6-1.9c-0.3-1-0.8-2.4-1.4-3.8h-6c-0.4,1.1-0.8,2.2-1.2,3.4
			c-0.5,1.6-0.4,2,1.8,2.2v1h-6.6v-1c1.9-0.3,2.3-0.5,3.4-3.1l6.1-15.5l1.3-0.4c1.9,5.2,3.8,10.6,5.8,15.8c1,2.6,1.4,3,3.3,3.2v1
			H189.5z M186.8,60.6L186.8,60.6c-1,2.3-1.8,4.6-2.6,6.9h5L186.8,60.6z">
   </path>
   <path class="st2" d="M217.4,75.9c-0.2,0-0.6,0-0.9,0c-3.2-0.2-4.4-0.9-5.7-2.8c-0.9-1.3-1.8-3-2.7-4.6c-0.5-0.9-1-1.3-2.2-1.3
			h-0.7v4.5c0,2.5,0.3,2.7,2.6,2.9v1h-8.6v-1c2.3-0.2,2.6-0.5,2.6-2.9V60c0-2.5-0.3-2.7-2.5-2.9v-1h8.1c2.5,0,4,0.3,5.2,1.1
			c1.2,0.8,2,2.1,2,4c0,2.6-1.7,4.1-3.8,4.9c0.5,0.9,1.6,2.9,2.5,4.3c1.1,1.6,1.7,2.5,2.4,3.2c0.7,0.8,1.3,1.1,1.9,1.3L217.4,75.9z
			 M206.3,66.1c1.4,0,2.4-0.2,3.1-0.8c1-0.9,1.5-2.1,1.5-3.6c0-3.2-1.9-4.4-3.8-4.4c-0.8,0-1.2,0.1-1.4,0.3
			c-0.2,0.2-0.3,0.5-0.3,1.2v7.3H206.3z">
   </path>
   <path class="st2" d="M232.6,75.6c-1.7-2.1-4.1-5.4-6.5-8.5c-0.7-0.9-1-1-1.5-1v5.5c0,2.6,0.3,2.8,2.6,3v1h-8.5v-1
			c2.2-0.2,2.5-0.4,2.5-3V60.1c0-2.6-0.3-2.8-2.6-3v-1h8.4v1c-2.2,0.2-2.5,0.4-2.5,3v5.1c0.7-0.2,1.3-0.6,2.2-1.5
			c1.9-1.9,3.4-3.6,4.5-5c0.8-1,0.7-1.4-0.7-1.6l-0.6-0.1v-1h7.6v1c-2,0.2-3,0.5-4.8,2.1c-1.5,1.4-3.1,3.1-4.7,4.7
			c2,2.9,4.6,6.1,6.5,8.5c1.4,1.6,2.1,2,3.4,2.2v1H232.6z">
   </path>
   <path class="st2" d="M255.1,70.7c-0.2,1.2-0.8,4-1,4.9h-15v-1c2.6-0.2,2.9-0.4,2.9-2.9V60c0-2.6-0.3-2.8-2.5-2.9v-1h13.8
			c0,0.6,0.2,2.7,0.3,4.4l-1,0.1c-0.3-1.1-0.6-2-1.1-2.6c-0.5-0.6-1.3-0.8-3.1-0.8h-1.7c-1,0-1.1,0.1-1.1,1v6.5h2.3
			c2.6,0,2.9-0.2,3.3-2.2h1v5.9h-1c-0.4-2.2-0.7-2.3-3.3-2.3h-2.3v5.3c0,1.4,0.1,2.1,0.7,2.5c0.5,0.3,1.6,0.3,2.8,0.3
			c1.8,0,2.8-0.2,3.5-1c0.6-0.6,1.1-1.6,1.6-2.9L255.1,70.7z">
   </path>
   <path class="st2" d="M272.6,61c-0.4-1.5-0.7-2.4-1.2-2.9c-0.5-0.6-1.2-0.8-3.1-0.8h-1.6v14.4c0,2.5,0.3,2.7,3,2.9v1h-9.4v-1
			c2.6-0.2,2.9-0.4,2.9-2.9V57.3h-1.3c-2.5,0-3,0.3-3.4,0.8c-0.4,0.5-0.8,1.5-1.1,2.9h-1c0.1-2,0.3-4.2,0.4-5.7h0.7
			c0.5,0.7,0.8,0.8,1.7,0.8h12c0.8,0,1.1-0.2,1.6-0.8h0.7c0,1.3,0.2,3.8,0.3,5.6L272.6,61z">
   </path>
   <path class="st1" d="M288.3,3v0.6h-1.1v3h-0.7v-3h-1.1V3H288.3z M292.1,6.5L292,4.4c0-0.3,0-0.6,0-1h0c-0.1,0.3-0.2,0.7-0.3,1.1
			l-0.6,2h-0.7l-0.6-2c-0.1-0.3-0.2-0.7-0.2-1h0c0,0.3,0,0.7,0,1l-0.1,2.1h-0.7l0.3-3.5h1.1l0.6,1.7c0.1,0.3,0.1,0.5,0.2,0.9h0
			c0.1-0.3,0.2-0.6,0.2-0.9l0.6-1.7h1l0.3,3.5H292.1z">
   </path>
  </g>
 </g>
</svg>